<?xml version="1.0" encoding="UTF-8" standalone="no"?>
<!-- Created with Inkscape (http://www.inkscape.org/) -->

<svg
   xmlns:dc="http://purl.org/dc/elements/1.1/"
   xmlns:cc="http://creativecommons.org/ns#"
   xmlns:rdf="http://www.w3.org/1999/02/22-rdf-syntax-ns#"
   xmlns:svg="http://www.w3.org/2000/svg"
   xmlns="http://www.w3.org/2000/svg"
   xmlns:sodipodi="http://sodipodi.sourceforge.net/DTD/sodipodi-0.dtd"
   xmlns:inkscape="http://www.inkscape.org/namespaces/inkscape"
   width="53.943909mm"
   height="23.473841mm"
   viewBox="0 0 53.943909 23.473841"
   version="1.1"
   id="svg8"
   inkscape:version="0.92.4 (5da689c313, 2019-01-14)"
   sodipodi:docname="logo_albio.svg">
  <defs
     id="defs2" />
  <sodipodi:namedview
     id="base"
     pagecolor="#ffffff"
     bordercolor="#666666"
     borderopacity="1.0"
     inkscape:pageopacity="0.0"
     inkscape:pageshadow="2"
     inkscape:zoom="1.4"
     inkscape:cx="90.181841"
     inkscape:cy="87.134634"
     inkscape:document-units="mm"
     inkscape:current-layer="layer1"
     showgrid="false"
     fit-margin-top="0"
     fit-margin-left="0"
     fit-margin-right="0"
     fit-margin-bottom="0"
     inkscape:window-width="1158"
     inkscape:window-height="1013"
     inkscape:window-x="67"
     inkscape:window-y="0"
     inkscape:window-maximized="0" />
  <metadata
     id="metadata5">
    <rdf:RDF>
      <cc:Work
         rdf:about="">
        <dc:format>image/svg+xml</dc:format>
        <dc:type
           rdf:resource="http://purl.org/dc/dcmitype/StillImage" />
        <dc:title></dc:title>
      </cc:Work>
    </rdf:RDF>
  </metadata>
  <g
     inkscape:label="Layer 1"
     inkscape:groupmode="layer"
     id="layer1"
     transform="translate(-42.277033,-3.8013264)">
    <path
       style="opacity:0.24800002;fill:#008f9c;fill-opacity:1;stroke-width:0.04338925"
       d="m 80.594178,24.982926 c -0.09546,-0.0085 -0.466407,-0.0553 -0.824333,-0.104023 -3.005196,-0.409091 -5.834359,-1.441467 -7.24607,-2.64412 -0.219517,-0.187011 -0.280744,-0.218218 -0.390503,-0.19903 -0.07159,0.01253 -0.481622,0.09986 -0.911175,0.194109 -0.429551,0.09425 -0.878633,0.18543 -0.997952,0.202635 -0.11932,0.0172 -0.240222,0.04364 -0.268672,0.05874 -0.02847,0.01511 0.503558,0.356154 1.183052,0.75837 0.679128,0.401997 1.278398,0.767302 1.331709,0.811784 0.09692,0.08087 0.09689,0.08088 -0.141711,0.08148 -0.60611,0.0015 -1.359286,-0.149472 -2.798605,-0.561025 -1.099519,-0.31439 -1.186785,-0.337582 -1.540319,-0.409324 -0.178981,-0.03632 -0.686635,-0.109254 -1.128121,-0.162074 -1.777275,-0.212638 -3.552004,-0.07862 -5.591625,0.422241 -0.438415,0.107658 -0.804944,0.187916 -0.814512,0.178348 -0.02948,-0.02948 1.14085,-0.507468 1.850266,-0.755679 2.650698,-0.927426 4.870213,-1.199946 6.422218,-0.788544 l 0.326028,0.08642 0.346873,-0.208089 c 0.190778,-0.11445 0.673751,-0.364291 1.073272,-0.555205 0.399521,-0.190912 0.726403,-0.358564 0.726403,-0.372561 3e-6,-0.01401 -0.161533,-0.105494 -0.358966,-0.203325 -1.800594,-0.89223 -4.517901,-0.771368 -7.711433,0.342989 -0.760015,0.265202 -1.542868,0.592891 -2.385361,0.998475 -1.650878,0.794747 -3.288652,1.182501 -5.347557,1.266071 -0.42141,0.01711 -0.526808,-0.02053 -0.218642,-0.07807 0.487407,-0.09101 1.888007,-0.752609 3.721108,-1.757739 2.151932,-1.179953 3.509924,-1.849812 4.816208,-2.375701 2.613308,-1.052076 5.295574,-1.490911 6.989713,-1.143557 0.780161,0.159957 1.626397,0.435899 2.362071,0.770231 l 0.326821,0.148527 0.517771,-0.222169 c 1.992254,-0.854846 4.335978,-0.965086 6.39154,-0.30063 0.231367,0.07479 0.710377,0.252311 1.064463,0.394492 0.354087,0.142178 0.871503,0.319824 1.149816,0.394767 0.454477,0.122377 0.570111,0.136475 1.135166,0.138388 0.704114,0.0024 0.949642,-0.06026 1.269177,-0.323822 0.415457,-0.342679 0.526328,-0.892928 0.280699,-1.393109 -0.234569,-0.477655 -0.653606,-0.737663 -1.318646,-0.818202 -0.696365,-0.08433 -1.320877,0.05792 -1.748303,0.398247 l -0.22201,0.176766 0.08189,-0.215521 c 0.277463,-0.730222 0.978895,-1.328678 1.854401,-1.582161 0.455642,-0.131919 1.460241,-0.142067 1.984706,-0.02005 0.857006,0.199389 1.577377,0.770963 1.956599,1.552452 0.251835,0.518978 0.34118,0.897986 0.34146,1.448512 5.3e-4,0.811661 -0.259731,1.452918 -0.809606,1.995691 -0.596286,0.588587 -1.34338,0.846132 -2.47214,0.852219 -0.827558,0.0045 -1.253725,-0.117922 -2.521598,-0.724155 -1.671378,-0.79917 -2.847107,-1.19723 -4.299985,-1.455823 -0.709594,-0.1263 -1.949264,-0.138636 -2.512128,-0.025 -0.436261,0.08808 -1.113346,0.328439 -1.137743,0.403896 -0.0087,0.027 0.06292,0.111487 0.159208,0.18775 l 0.175074,0.138663 0.658297,-0.07395 c 0.888886,-0.09985 1.816198,-0.06838 2.50703,0.08509 0.882838,0.196118 2.56448,0.809443 4.233302,1.543965 1.540026,0.677832 1.93512,0.809058 2.81069,0.933531 0.571291,0.08122 0.932442,0.08058 1.492768,-0.0026 0.832745,-0.123652 1.552295,-0.387002 2.256317,-0.8258 0.724537,-0.451584 1.302192,-1.369411 1.58161,-2.513001 0.125092,-0.511958 0.135681,-1.419545 0.02154,-1.844043 -0.234011,-0.870141 -0.583303,-1.465844 -1.215215,-2.072503 -1.738233,-1.668778 -4.828101,-2.198232 -6.815939,-1.167931 -0.684853,0.35496 -1.316189,0.913613 -1.700395,1.50464 -0.09181,0.141229 -0.179332,0.257629 -0.19449,0.258663 -0.04015,0.0027 -0.359011,-0.538047 -0.510556,-0.865905 -0.0717,-0.155118 -0.183214,-0.457759 -0.247806,-0.672535 -0.102407,-0.340488 -0.117848,-0.468306 -0.120579,-0.997952 -0.0024,-0.444647 0.01781,-0.694668 0.07501,-0.93287 0.272811,-1.136236 1.045834,-2.219141 2.097058,-2.9377156 1.252249,-0.855982 2.49224,-1.151364 4.266568,-1.016345 1.535374,0.116833 2.831388,0.484568 3.958555,1.123209 0.655659,0.371491 1.062736,0.6882976 1.683258,1.3099926 0.865037,0.866675 1.535885,1.948468 1.94618,3.138379 0.264607,0.767388 0.35583,1.281181 0.383032,2.157347 0.07534,2.42661 -0.775983,4.912791 -2.155076,6.29365 -0.887979,0.889116 -2.284283,1.721511 -3.630724,2.164421 -0.889132,0.292479 -1.583076,0.407021 -2.467255,0.407245 -1.533409,4.23e-4 -2.958439,-0.419111 -5.153097,-1.516964 -1.379992,-0.690326 -2.634628,-1.196639 -3.418242,-1.379442 l -0.258889,-0.0604 0.08384,0.115531 c 0.107312,0.14788 0.654854,0.677329 0.936321,0.90538 0.683807,0.554042 2.018937,1.292653 3.124028,1.728252 0.286366,0.112879 0.528804,0.212408 0.538749,0.221178 0.02122,0.01872 -0.634084,0.0083 -0.885864,-0.01409 z"
       id="path1222"
       inkscape:connector-curvature="0" />
    <path
       style="fill:#008f9c;fill-opacity:1;fill-rule:evenodd;stroke:none;stroke-width:0.04349096;stroke-linecap:butt;stroke-linejoin:miter;stroke-miterlimit:4;stroke-dasharray:none;stroke-opacity:1"
       d="m 63.833871,20.956359 c 1.209819,-0.937595 4.610327,-1.879221 6.037934,-0.792991 0.905099,0.492741 0.979685,0.867448 2.078888,0.794031 -1.243131,0.480771 -3.14491,-0.61773 -4.055369,-0.79024 -0.91046,-0.172509 -2.896963,0.513694 -4.061453,0.7892 z"
       id="path1230"
       inkscape:connector-curvature="0"
       sodipodi:nodetypes="ccczc" />
    <path
       style="fill:#008f9c;fill-opacity:1;fill-rule:evenodd;stroke:none;stroke-width:0.04349096;stroke-linecap:butt;stroke-linejoin:miter;stroke-miterlimit:4;stroke-dasharray:none;stroke-opacity:1"
       d="m 60.628761,23.615949 c 2.065166,-1.094291 2.618852,-2.303839 3.089869,-3.485252 0.42084,-1.055561 1.790368,-1.810581 3.730527,-2.013728 2.65158,-0.277636 3.5048,-0.314954 4.638254,1.937936 1.133451,2.252891 0.26765,2.409353 4.418436,4.007255 -2.186606,-0.142226 -4.535067,-1.421317 -5.05392,-3.283565 -0.866788,-2.407935 -1.937477,-2.331403 -3.726785,-2.097565 -1.789304,0.233838 -2.227897,0.272823 -3.573418,1.836177 -1.34552,1.563354 -0.532264,2.919785 -3.522963,3.098742 z"
       id="path1224"
       inkscape:connector-curvature="0"
       sodipodi:nodetypes="csszcczzc" />
    <text
       xml:space="preserve"
       style="font-style:normal;font-variant:normal;font-weight:normal;font-stretch:normal;font-size:12.69999981px;line-height:125%;font-family:Manjari;-inkscape-font-specification:'Manjari, Normal';font-variant-ligatures:normal;font-variant-caps:normal;font-variant-numeric:normal;font-feature-settings:normal;text-align:start;letter-spacing:0px;word-spacing:0px;writing-mode:lr-tb;text-anchor:start;fill:#c79300;fill-opacity:1;stroke:none;stroke-width:0.26458332px;stroke-linecap:butt;stroke-linejoin:miter;stroke-opacity:1"
       x="43.571869"
       y="23.65023"
       id="text821"><tspan
         sodipodi:role="line"
         id="tspan819"
         x="43.571869"
         y="23.65023"
         style="font-style:normal;font-variant:normal;font-weight:normal;font-stretch:normal;font-size:14.11111111px;font-family:Manjari;-inkscape-font-specification:'Manjari, Normal';font-variant-ligatures:normal;font-variant-caps:normal;font-variant-numeric:normal;font-feature-settings:normal;text-align:start;writing-mode:lr;text-anchor:start;fill:#c79300;fill-opacity:1;stroke-width:0.26458332px">albio</tspan></text>
    <path
       style="fill:#008f9c;fill-opacity:1;fill-rule:evenodd;stroke:none;stroke-width:0.04349096;stroke-linecap:butt;stroke-linejoin:miter;stroke-miterlimit:4;stroke-dasharray:none;stroke-opacity:1"
       d="m 72.103564,18.465356 c 3.639127,1.319896 3.047225,2.177997 3.687834,3.807341 0.640604,1.629343 1.512115,2.574742 5.626592,2.700592 -2.936862,-0.784754 -3.825478,-1.016917 -4.14869,-2.323231 -0.323213,-1.306313 -1.563235,-3.268075 -5.165736,-4.184702 z"
       id="path1226"
       inkscape:connector-curvature="0"
       sodipodi:nodetypes="czczc" />
    <path
       style="fill:#008f9c;fill-opacity:1;fill-rule:evenodd;stroke:none;stroke-width:0.02141536;stroke-linecap:butt;stroke-linejoin:miter;stroke-miterlimit:4;stroke-dasharray:none;stroke-opacity:1"
       d="m 80.397749,16.989408 c 0.554381,0.510588 1.140166,1.20264 0.938646,2.013338 -0.165081,0.479842 -0.452191,0.962005 -0.326472,1.4897 -0.335306,-0.564197 -0.191018,-1.216931 -0.02434,-1.807493 0.02273,-0.609289 -0.35863,-1.15271 -0.587828,-1.695545 z"
       id="path1230-6"
       inkscape:connector-curvature="0" />
    <path
       style="fill:#008f9c;fill-opacity:1;fill-rule:evenodd;stroke:none;stroke-width:0.04349096;stroke-linecap:butt;stroke-linejoin:miter;stroke-miterlimit:4;stroke-dasharray:none;stroke-opacity:1"
       d="m 80.387668,15.771332 c 1.261385,-2.191517 6.273364,-2.920787 0.597906,2.913621 2.196748,1.156823 1.93516,3.280506 0.432416,6.288336 0.954746,-1.938636 3.343185,-4.354226 0.568524,-6.689436 1.329877,-1.113459 3.299386,-4.392508 1.778468,-5.106612 -1.52092,-0.714104 -3.85272,0.360094 -3.377314,2.594091 z"
       id="path1247"
       inkscape:connector-curvature="0"
       sodipodi:nodetypes="cccczc" />
    <path
       style="fill:#008f9c;fill-opacity:1;fill-rule:evenodd;stroke:none;stroke-width:0.04349096;stroke-linecap:butt;stroke-linejoin:miter;stroke-miterlimit:4;stroke-dasharray:none;stroke-opacity:1"
       d="m 84.984645,16.115783 c 0.441211,1.696691 1.291283,3.463833 0.688239,5.241746 -0.430765,1.114875 -1.659032,2.520834 -0.61551,3.668201 1.358532,-2.37989 1.760781,-5.385315 0.655764,-7.939326 -0.176162,-0.365544 -0.403788,-0.719473 -0.728493,-0.970621 z"
       id="path1249"
       inkscape:connector-curvature="0" />
    <path
       style="fill:#008f9c;fill-opacity:1;fill-rule:evenodd;stroke:none;stroke-width:0.05430453;stroke-linecap:butt;stroke-linejoin:miter;stroke-miterlimit:4;stroke-dasharray:none;stroke-opacity:1"
       d="m 85.155518,12.370076 c 1.078426,0.641283 -0.109585,3.324983 -0.249515,3.060328 0.108431,-0.889979 0.720466,-2.120023 0.249515,-3.060328 z"
       id="path1230-6-2"
       inkscape:connector-curvature="0"
       sodipodi:nodetypes="ccc" />
    <path
       style="fill:#008f9c;fill-opacity:1;fill-rule:evenodd;stroke:none;stroke-width:0.04349096;stroke-linecap:butt;stroke-linejoin:miter;stroke-miterlimit:4;stroke-dasharray:none;stroke-opacity:1"
       d="m 88.414891,22.594249 c -3.162916,-3.024701 -2.491552,-13.795654 2.527686,-11.953695 5.019239,1.841958 3.335433,11.22351 -0.834154,13.009642 2.276054,-1.710197 4.965195,-8.607907 0.365678,-10.683371 -4.599517,-2.075463 -4.456245,6.745732 -2.05921,9.627424 z"
       id="path1224-1"
       inkscape:connector-curvature="0"
       sodipodi:nodetypes="czczc" />
  </g>
</svg>
